<svg width="194" height="29" viewBox="0 0 194 29" fill="none" xmlns="http://www.w3.org/2000/svg">
<path d="M0 24V23.76H0.024C0.584 23.76 1.04 23.6 1.392 23.28C1.76 22.944 1.944 22.512 1.944 21.984V8.016C1.912 7.472 1.72 7.04 1.368 6.72C1.032 6.4 0.584 6.24 0.024 6.24H0V6H7.128C8.424 6 9.544 6.168 10.488 6.504C11.448 6.84 12.192 7.312 12.72 7.92C13.248 8.512 13.512 9.216 13.512 10.032C13.512 10.96 13.112 11.76 12.312 12.432C11.528 13.104 10.496 13.52 9.216 13.68C10.4 13.744 11.432 13.984 12.312 14.4C13.208 14.8 13.904 15.344 14.4 16.032C14.912 16.72 15.168 17.52 15.168 18.432C15.168 19.52 14.848 20.488 14.208 21.336C13.584 22.168 12.696 22.824 11.544 23.304C10.392 23.768 9.032 24 7.464 24H0ZM5.64 13.512H7.128C7.944 13.512 8.6 13.192 9.096 12.552C9.608 11.896 9.864 11.024 9.864 9.936C9.864 8.832 9.608 7.952 9.096 7.296C8.6 6.64 7.944 6.312 7.128 6.312H5.64V13.512ZM7.464 23.688C8.648 23.688 9.584 23.24 10.272 22.344C10.976 21.448 11.328 20.24 11.328 18.72C11.328 17.264 10.944 16.096 10.176 15.216C9.424 14.32 8.408 13.872 7.128 13.872H5.64V21.984C5.64 23.12 6.248 23.688 7.464 23.688ZM29.1894 24.336C27.2694 24.336 25.5814 23.952 24.1254 23.184C22.6854 22.4 21.5574 21.312 20.7414 19.92C19.9414 18.512 19.5414 16.872 19.5414 15C19.5414 13.128 19.9414 11.496 20.7414 10.104C21.5574 8.696 22.6854 7.608 24.1254 6.84C25.5814 6.056 27.2694 5.664 29.1894 5.664C31.1094 5.664 32.7894 6.056 34.2294 6.84C35.6854 7.608 36.8134 8.696 37.6134 10.104C38.4294 11.496 38.8374 13.128 38.8374 15C38.8374 16.872 38.4294 18.512 37.6134 19.92C36.8134 21.312 35.6854 22.4 34.2294 23.184C32.7894 23.952 31.1094 24.336 29.1894 24.336ZM29.1894 23.952C30.0214 23.952 30.7814 23.736 31.4694 23.304C32.1574 22.872 32.7494 22.264 33.2454 21.48C33.7254 20.696 34.0934 19.752 34.3494 18.648C34.6214 17.544 34.7574 16.32 34.7574 14.976C34.7574 13.632 34.6214 12.408 34.3494 11.304C34.0934 10.184 33.7254 9.232 33.2454 8.448C32.7494 7.664 32.1574 7.056 31.4694 6.624C30.7814 6.192 30.0214 5.976 29.1894 5.976C28.3574 5.976 27.5974 6.192 26.9094 6.624C26.2214 7.056 25.6374 7.664 25.1574 8.448C24.6614 9.232 24.2774 10.184 24.0054 11.304C23.7494 12.408 23.6214 13.632 23.6214 14.976C23.6214 16.32 23.7494 17.544 24.0054 18.648C24.2774 19.752 24.6614 20.696 25.1574 21.48C25.6374 22.264 26.2214 22.872 26.9094 23.304C27.5974 23.736 28.3574 23.952 29.1894 23.952ZM46.3189 24L46.3429 23.76H46.3669C46.9429 23.76 47.4069 23.584 47.7589 23.232C48.1109 22.88 48.2869 22.416 48.2869 21.84V6.336H47.5909C46.8069 6.336 46.0389 6.464 45.2869 6.72C44.5349 6.96 43.8869 7.408 43.3429 8.064C42.7989 8.704 42.4309 9.632 42.2389 10.848H41.9989L42.6709 6H57.6229L58.3189 10.848H58.0789C57.8869 9.648 57.5109 8.72 56.9509 8.064C56.4069 7.408 55.7509 6.96 54.9829 6.72C54.2309 6.464 53.4469 6.336 52.6309 6.336H52.0069V21.84C52.0069 22.416 52.1829 22.88 52.5349 23.232C52.8869 23.584 53.3509 23.76 53.9269 23.76L53.9509 24H46.3189ZM57.6109 24V23.76C57.9149 23.728 58.2189 23.584 58.5229 23.328C58.8429 23.056 59.1389 22.72 59.4109 22.32C59.6829 21.92 59.8909 21.528 60.0349 21.144L66.3709 5.64H66.5869L72.8269 21.144C73.5309 22.888 74.3149 23.76 75.1789 23.76H75.2509V24H67.5709V23.76H67.6669C68.3869 23.76 68.8669 23.544 69.1069 23.112C69.3629 22.664 69.3309 22.048 69.0109 21.264L67.5709 17.688H61.7869L60.4429 21.024C60.1549 21.712 60.1869 22.336 60.5389 22.896C60.9069 23.44 61.4909 23.728 62.2909 23.76V24H57.6109ZM61.9069 17.376H67.4509L64.7149 10.464L61.9069 17.376ZM92.9633 24.336L80.3873 8.304C80.2753 8.16 80.1473 8.016 80.0033 7.872C79.8753 7.728 79.7553 7.608 79.6433 7.512V21.24C79.6433 21.928 79.8513 22.52 80.2673 23.016C80.6833 23.512 81.2353 23.76 81.9233 23.76V24H76.9313V23.76C77.6353 23.76 78.1953 23.512 78.6113 23.016C79.0273 22.52 79.2353 21.92 79.2353 21.216V7.176C78.5153 6.632 77.7553 6.32 76.9553 6.24V6H83.1233L92.5553 18.168V8.76C92.5553 8.072 92.3473 7.48 91.9313 6.984C91.5153 6.488 90.9633 6.24 90.2753 6.24V6H95.2433V6.24C94.5553 6.24 94.0033 6.488 93.5873 6.984C93.1713 7.48 92.9633 8.072 92.9633 8.76V24.336ZM97.9078 24V23.76H97.9318C98.5078 23.76 98.9718 23.584 99.3238 23.232C99.6758 22.88 99.8518 22.416 99.8518 21.84V8.16C99.8518 7.584 99.6758 7.12 99.3238 6.768C98.9718 6.416 98.5078 6.24 97.9318 6.24H97.9078V6H105.516V6.24H105.492C104.916 6.24 104.452 6.416 104.1 6.768C103.748 7.12 103.572 7.584 103.572 8.16V21.84C103.572 22.416 103.748 22.88 104.1 23.232C104.452 23.584 104.916 23.76 105.492 23.76H105.516V24H97.9078ZM119.17 24.336C117.09 24.336 115.266 23.952 113.698 23.184C112.13 22.4 110.906 21.304 110.026 19.896C109.162 18.488 108.73 16.848 108.73 14.976C108.73 13.088 109.162 11.448 110.026 10.056C110.906 8.664 112.146 7.584 113.746 6.816C115.346 6.048 117.242 5.664 119.434 5.664C119.962 5.664 120.402 5.688 120.754 5.736C121.106 5.768 121.434 5.808 121.739 5.856C122.043 5.904 122.386 5.952 122.77 6C123.17 6.032 123.666 6.048 124.258 6.048L124.978 10.848H124.739C124.562 9.904 124.21 9.072 123.682 8.352C123.17 7.616 122.522 7.04 121.739 6.624C120.97 6.192 120.114 5.976 119.17 5.976C118.242 5.976 117.386 6.2 116.602 6.648C115.818 7.096 115.146 7.72 114.586 8.52C114.026 9.336 113.586 10.312 113.266 11.448C112.962 12.568 112.81 13.8 112.81 15.144C112.81 16.92 113.082 18.472 113.626 19.8C114.17 21.112 114.938 22.136 115.93 22.872C116.922 23.592 118.09 23.952 119.434 23.952C120.97 23.952 122.234 23.496 123.226 22.584C124.234 21.656 124.859 20.368 125.098 18.72H125.338L124.642 23.904C123.891 23.904 123.227 23.936 122.65 24C122.074 24.08 121.514 24.152 120.97 24.216C120.442 24.296 119.842 24.336 119.17 24.336ZM136.407 24V23.76H136.503C137.079 23.76 137.543 23.584 137.895 23.232C138.247 22.88 138.423 22.416 138.423 21.84V8.16C138.423 7.584 138.247 7.12 137.895 6.768C137.543 6.416 137.079 6.24 136.503 6.24H136.407V6H144.087V6.24H144.039C143.463 6.24 142.999 6.416 142.647 6.768C142.295 7.12 142.119 7.584 142.119 8.16V13.728H150.039V8.16C150.039 7.584 149.863 7.12 149.511 6.768C149.159 6.416 148.695 6.24 148.119 6.24H148.047V6H155.727V6.24H155.655C155.079 6.24 154.615 6.416 154.263 6.768C153.911 7.12 153.735 7.584 153.735 8.16V21.84C153.735 22.416 153.911 22.88 154.263 23.232C154.615 23.584 155.079 23.76 155.655 23.76H155.727V24H148.047V23.76H148.119C148.695 23.76 149.159 23.584 149.511 23.232C149.863 22.88 150.039 22.416 150.039 21.84V14.064H142.119V21.84C142.119 22.416 142.295 22.88 142.647 23.232C142.999 23.584 143.463 23.76 144.039 23.76H144.087V24H136.407ZM166.986 24.336C165.578 24.336 164.354 24.064 163.314 23.52C162.274 22.976 161.466 22.208 160.89 21.216C160.33 20.208 160.05 19.032 160.05 17.688V8.16C160.05 7.584 159.874 7.12 159.522 6.768C159.17 6.416 158.706 6.24 158.13 6.24H158.034V6H165.762V6.24H165.69C165.114 6.24 164.65 6.416 164.298 6.768C163.946 7.12 163.77 7.584 163.77 8.16V17.688C163.77 19.384 164.202 20.728 165.066 21.72C165.946 22.696 167.13 23.184 168.618 23.184C170.122 23.184 171.306 22.688 172.17 21.696C173.034 20.688 173.466 19.352 173.466 17.688V8.52C173.466 7.832 173.258 7.288 172.842 6.888C172.426 6.488 171.874 6.272 171.186 6.24V6H176.154V6.24C175.466 6.272 174.914 6.488 174.498 6.888C174.082 7.288 173.874 7.832 173.874 8.52V17.688C173.874 19.032 173.594 20.2 173.034 21.192C172.49 22.184 171.698 22.96 170.658 23.52C169.634 24.064 168.41 24.336 166.986 24.336ZM178.097 24V23.76H178.121C178.681 23.76 179.137 23.6 179.489 23.28C179.857 22.944 180.041 22.512 180.041 21.984V8.016C180.009 7.472 179.817 7.04 179.465 6.72C179.129 6.4 178.681 6.24 178.121 6.24H178.097V6H185.225C186.521 6 187.641 6.168 188.585 6.504C189.545 6.84 190.289 7.312 190.817 7.92C191.345 8.512 191.609 9.216 191.609 10.032C191.609 10.96 191.209 11.76 190.409 12.432C189.625 13.104 188.593 13.52 187.313 13.68C188.497 13.744 189.529 13.984 190.409 14.4C191.305 14.8 192.001 15.344 192.497 16.032C193.009 16.72 193.265 17.52 193.265 18.432C193.265 19.52 192.945 20.488 192.305 21.336C191.681 22.168 190.793 22.824 189.641 23.304C188.489 23.768 187.129 24 185.561 24H178.097ZM183.737 13.512H185.225C186.041 13.512 186.697 13.192 187.193 12.552C187.705 11.896 187.961 11.024 187.961 9.936C187.961 8.832 187.705 7.952 187.193 7.296C186.697 6.64 186.041 6.312 185.225 6.312H183.737V13.512ZM185.561 23.688C186.745 23.688 187.681 23.24 188.369 22.344C189.073 21.448 189.425 20.24 189.425 18.72C189.425 17.264 189.041 16.096 188.273 15.216C187.521 14.32 186.505 13.872 185.225 13.872H183.737V21.984C183.737 23.12 184.345 23.688 185.561 23.688Z" fill="#1C2826"/>
</svg>
